<svg width="1080" height="1080" viewBox="0 0 1080 1080" fill="none" xmlns="http://www.w3.org/2000/svg">
<g clip-path="url(#clip0_1070_3423)">
<path fill-rule="evenodd" clip-rule="evenodd" d="M536.392 841.969L538.502 1018.27L366.858 720.3L417.033 633.285L536.392 841.969Z" fill="#FFA1CD"/>
<path fill-rule="evenodd" clip-rule="evenodd" d="M413.735 626.691L363.337 714.262L195.794 423.84H296.743L413.735 626.691Z" fill="#FFA1CD"/>
<path fill-rule="evenodd" clip-rule="evenodd" d="M173.543 211.288L22.035 123.53L191.79 416.801L292.265 416.801L173.543 211.288Z" fill="#FFA1CD"/>
<path fill-rule="evenodd" clip-rule="evenodd" d="M29.2012 121.667L180.108 206.861H413.806L364.734 121.631L29.2012 121.667Z" fill="#FFA1CD"/>
<path fill-rule="evenodd" clip-rule="evenodd" d="M372.674 121.631L422.335 206.861H657.648L706.578 121.631H372.674Z" fill="#FFA1CD"/>
<path fill-rule="evenodd" clip-rule="evenodd" d="M902.544 206.652L1050.19 122.217L716.066 122.217L665.758 206.652L902.544 206.652Z" fill="#FFA1CD"/>
<path fill-rule="evenodd" clip-rule="evenodd" d="M905.916 213.221L1059.57 123.322L884.922 416.125L788.215 416.125L905.916 213.221Z" fill="#FFA1CD"/>
<path fill-rule="evenodd" clip-rule="evenodd" d="M666.76 627.119L784.087 423.341H882.405L716.999 714.92L666.76 627.119Z" fill="#FFA1CD"/>
<path fill-rule="evenodd" clip-rule="evenodd" d="M543.608 842.898L542.116 1018.27L713.284 718.907L663.315 633.033L543.608 842.898Z" fill="#FFA1CD"/>
<path fill-rule="evenodd" clip-rule="evenodd" d="M536.392 679.819V826.821L421.047 627.915L464.249 552.162L536.392 679.819Z" fill="#FFA1CD"/>
<path fill-rule="evenodd" clip-rule="evenodd" d="M460.132 545.271L416.646 622.129L304.765 423.839H389.987L460.132 545.271Z" fill="#FFA1CD"/>
<path fill-rule="evenodd" clip-rule="evenodd" d="M386.527 416.8L300.068 416.763L183.25 215.626L313.799 292.426L386.527 416.8Z" fill="#FFA1CD"/>
<path fill-rule="evenodd" clip-rule="evenodd" d="M188.888 212.614L321.591 288.956H461.559L416.959 213.221L188.888 212.614Z" fill="#FFA1CD"/>
<path fill-rule="evenodd" clip-rule="evenodd" d="M469.912 288.956L426.144 213.221H652.557L609.527 288.956H469.912Z" fill="#FFA1CD"/>
<path fill-rule="evenodd" clip-rule="evenodd" d="M617.988 288.956L662.566 213.221H890.623L757.553 288.956H617.988Z" fill="#FFA1CD"/>
<path fill-rule="evenodd" clip-rule="evenodd" d="M758.487 299.362L894.794 219.399L780.272 416.125H691.528L758.487 299.362Z" fill="#FFA1CD"/>
<path fill-rule="evenodd" clip-rule="evenodd" d="M619.902 545.158L689.52 423.341H776.752L662.15 620.076L619.902 545.158Z" fill="#FFA1CD"/>
<path fill-rule="evenodd" clip-rule="evenodd" d="M544.051 680.047L543.608 826.821L658.656 625.607L616.953 552.374L544.051 680.047Z" fill="#FFA1CD"/>
<path fill-rule="evenodd" clip-rule="evenodd" d="M536.392 520.481V663.875L468.071 545.083L510.48 473.853L536.392 520.481Z" fill="#FFA1CD"/>
<path fill-rule="evenodd" clip-rule="evenodd" d="M464.325 538.54L506.704 465.86L482.307 423.341H397.839L464.325 538.54Z" fill="#FFA1CD"/>
<path fill-rule="evenodd" clip-rule="evenodd" d="M451.83 373.532L330.08 303.749L395.649 416.8L476.806 416.765L451.83 373.532Z" fill="#FFA1CD"/>
<path fill-rule="evenodd" clip-rule="evenodd" d="M458.415 368.018L337.295 296.59L465.835 296.533L506.703 367.791L458.415 368.018Z" fill="#FFA1CD"/>
<path fill-rule="evenodd" clip-rule="evenodd" d="M473.853 295.857L514.54 368.018H562.879L605.602 295.857H473.853Z" fill="#FFA1CD"/>
<path fill-rule="evenodd" clip-rule="evenodd" d="M621.484 367.791L745.657 295.914L615.276 295.857L572.543 367.791H621.484Z" fill="#FFA1CD"/>
<path fill-rule="evenodd" clip-rule="evenodd" d="M627.244 373.142L752.873 301.284L686.544 416.125L601.336 416.089L627.244 373.142Z" fill="#FFA1CD"/>
<path fill-rule="evenodd" clip-rule="evenodd" d="M615.787 539.473L574.878 465.593L598.442 423.379L683.118 423.341L615.787 539.473Z" fill="#FFA1CD"/>
<path fill-rule="evenodd" clip-rule="evenodd" d="M543.608 520.963V663.875L611.204 545.033L569.534 473.853L543.608 520.963Z" fill="#FFA1CD"/>
</g>
<defs>
<clipPath id="clip0_1070_3423">
<rect width="1080" height="1080" fill="white"/>
</clipPath>
</defs>
</svg>
