<svg width="214" height="214" viewBox="0 0 214 214" fill="none" xmlns="http://www.w3.org/2000/svg">
<g clip-path="url(#clip0_1070_3457)">
<path fill-rule="evenodd" clip-rule="evenodd" d="M106.421 163.731L106.816 196.796L74.6245 140.912L84.0348 124.593L106.421 163.731Z" fill="#FFA1CD"/>
<path fill-rule="evenodd" clip-rule="evenodd" d="M83.4162 123.356L73.9641 139.78L42.5415 85.3115H61.4745L83.4162 123.356Z" fill="#FFA1CD"/>
<path fill-rule="evenodd" clip-rule="evenodd" d="M38.3684 45.448L9.95323 28.9891L41.7906 83.9917L60.6346 83.9917L38.3684 45.448Z" fill="#FFA1CD"/>
<path fill-rule="evenodd" clip-rule="evenodd" d="M11.2971 28.6395L39.5996 44.6176H83.4295L74.2261 28.6328L11.2971 28.6395Z" fill="#FFA1CD"/>
<path fill-rule="evenodd" clip-rule="evenodd" d="M75.7153 28.6328L85.0291 44.6176H129.162L138.339 28.6328H75.7153Z" fill="#FFA1CD"/>
<path fill-rule="evenodd" clip-rule="evenodd" d="M175.092 44.5785L202.783 28.7426L140.118 28.7426L130.683 44.5785L175.092 44.5785Z" fill="#FFA1CD"/>
<path fill-rule="evenodd" clip-rule="evenodd" d="M175.724 45.8105L204.541 28.95L171.787 83.865L153.649 83.865L175.724 45.8105Z" fill="#FFA1CD"/>
<path fill-rule="evenodd" clip-rule="evenodd" d="M130.871 123.436L152.875 85.2178H171.315L140.293 139.903L130.871 123.436Z" fill="#FFA1CD"/>
<path fill-rule="evenodd" clip-rule="evenodd" d="M107.774 163.906L107.494 196.796L139.596 140.651L130.225 124.546L107.774 163.906Z" fill="#FFA1CD"/>
<path fill-rule="evenodd" clip-rule="evenodd" d="M106.42 133.32V160.89L84.7876 123.585L92.89 109.378L106.42 133.32Z" fill="#FFA1CD"/>
<path fill-rule="evenodd" clip-rule="evenodd" d="M92.1181 108.086L83.9622 122.501L62.979 85.3115H78.9625L92.1181 108.086Z" fill="#FFA1CD"/>
<path fill-rule="evenodd" clip-rule="evenodd" d="M78.3134 83.9907L62.0981 83.9838L40.189 46.2607L64.6735 60.6645L78.3134 83.9907Z" fill="#FFA1CD"/>
<path fill-rule="evenodd" clip-rule="evenodd" d="M41.2463 45.6963L66.1348 60.0142H92.3857L84.0209 45.81L41.2463 45.6963Z" fill="#FFA1CD"/>
<path fill-rule="evenodd" clip-rule="evenodd" d="M93.9521 60.0137L85.7434 45.8096H128.207L120.137 60.0137H93.9521Z" fill="#FFA1CD"/>
<path fill-rule="evenodd" clip-rule="evenodd" d="M121.724 60.0137L130.084 45.8096H172.856L147.899 60.0137H121.724Z" fill="#FFA1CD"/>
<path fill-rule="evenodd" clip-rule="evenodd" d="M148.074 61.9656L173.638 46.9688L152.16 83.8644H135.516L148.074 61.9656Z" fill="#FFA1CD"/>
<path fill-rule="evenodd" clip-rule="evenodd" d="M122.083 108.065L135.139 85.2178H151.5L130.006 122.115L122.083 108.065Z" fill="#FFA1CD"/>
<path fill-rule="evenodd" clip-rule="evenodd" d="M107.857 133.363L107.774 160.89L129.351 123.153L121.53 109.418L107.857 133.363Z" fill="#FFA1CD"/>
<path fill-rule="evenodd" clip-rule="evenodd" d="M106.42 103.437V130.33L93.6067 108.051L101.56 94.6914L106.42 103.437Z" fill="#FFA1CD"/>
<path fill-rule="evenodd" clip-rule="evenodd" d="M92.9043 106.823L100.852 93.1922L96.2767 85.2178H80.4348L92.9043 106.823Z" fill="#FFA1CD"/>
<path fill-rule="evenodd" clip-rule="evenodd" d="M90.5607 75.8769L67.7266 62.7891L80.024 83.9917L95.2449 83.9852L90.5607 75.8769Z" fill="#FFA1CD"/>
<path fill-rule="evenodd" clip-rule="evenodd" d="M91.7958 74.8425L69.0798 61.4461L93.1873 61.4355L100.852 74.7999L91.7958 74.8425Z" fill="#FFA1CD"/>
<path fill-rule="evenodd" clip-rule="evenodd" d="M94.6912 61.3086L102.322 74.8422H111.388L119.401 61.3086H94.6912Z" fill="#FFA1CD"/>
<path fill-rule="evenodd" clip-rule="evenodd" d="M122.379 74.7996L145.668 61.3192L121.215 61.3086L113.2 74.7996H122.379Z" fill="#FFA1CD"/>
<path fill-rule="evenodd" clip-rule="evenodd" d="M123.46 75.8031L147.021 62.3262L134.581 83.8644L118.601 83.8578L123.46 75.8031Z" fill="#FFA1CD"/>
<path fill-rule="evenodd" clip-rule="evenodd" d="M121.311 106.998L113.638 93.1421L118.058 85.2249L133.939 85.2178L121.311 106.998Z" fill="#FFA1CD"/>
<path fill-rule="evenodd" clip-rule="evenodd" d="M107.774 103.527V130.33L120.451 108.041L112.636 94.6914L107.774 103.527Z" fill="#FFA1CD"/>
</g>
<defs>
<clipPath id="clip0_1070_3457">
<rect width="202.553" height="202.553" fill="white" transform="translate(5.82056 5.82031)"/>
</clipPath>
</defs>
</svg>
