<svg width="263" height="223" viewBox="0 0 263 223" fill="none" xmlns="http://www.w3.org/2000/svg">
<ellipse cx="135.388" cy="111.144" rx="56.4115" ry="56.4407" fill="#FF6883"/>
<ellipse cx="245.577" cy="84.805" rx="16.9234" ry="16.9322" fill="#FF6883" fill-opacity="0.7"/>
<ellipse cx="30.586" cy="184.517" rx="11.2823" ry="11.2881" fill="#FF6883" fill-opacity="0.6"/>
<ellipse cx="211.103" cy="192.042" rx="12.5359" ry="12.5424" fill="#FF6883" fill-opacity="0.4"/>
<ellipse cx="118.964" cy="217.754" rx="4.38756" ry="4.38983" fill="#FF6883" fill-opacity="0.3"/>
<ellipse cx="180.39" cy="4.53387" rx="4.38756" ry="4.38983" fill="#FF6883" fill-opacity="0.3"/>
<ellipse cx="60.0454" cy="112.398" rx="5.64115" ry="5.64407" fill="#FF6883" fill-opacity="0.2"/>
<ellipse cx="9.90191" cy="50.9407" rx="9.40191" ry="9.40678" fill="#FF6883" fill-opacity="0.5"/>
<ellipse cx="91.385" cy="34.6356" rx="6.89474" ry="6.8983" fill="#FF6883" fill-opacity="0.1"/>
<path d="M127.625 105.125C127.172 105.125 126.729 105.259 126.352 105.511C125.975 105.763 125.681 106.121 125.508 106.54C125.334 106.958 125.289 107.419 125.378 107.864C125.466 108.308 125.684 108.717 126.005 109.037C126.325 109.358 126.734 109.576 127.178 109.664C127.623 109.753 128.083 109.707 128.502 109.534C128.921 109.36 129.279 109.067 129.531 108.69C129.782 108.313 129.917 107.87 129.917 107.417C129.917 106.809 129.675 106.226 129.246 105.796C128.816 105.366 128.233 105.125 127.625 105.125ZM140.596 115.575L130.994 119.013C130.489 119.196 130.065 119.55 129.795 120.014C129.525 120.478 129.426 121.022 129.516 121.551C129.606 122.08 129.879 122.561 130.287 122.91C130.696 123.258 131.213 123.452 131.75 123.458C132.016 123.458 132.28 123.412 132.529 123.321L142.154 119.883C142.445 119.787 142.714 119.634 142.945 119.432C143.175 119.231 143.363 118.985 143.497 118.709C143.631 118.434 143.708 118.134 143.725 117.828C143.741 117.522 143.695 117.216 143.591 116.928C143.487 116.64 143.326 116.375 143.118 116.15C142.91 115.926 142.659 115.745 142.379 115.619C142.1 115.492 141.798 115.424 141.492 115.416C141.186 115.409 140.881 115.463 140.596 115.575ZM141.375 105.125C140.922 105.125 140.479 105.259 140.102 105.511C139.725 105.763 139.431 106.121 139.258 106.54C139.084 106.958 139.039 107.419 139.128 107.864C139.216 108.308 139.434 108.717 139.755 109.037C140.075 109.358 140.484 109.576 140.928 109.664C141.373 109.753 141.833 109.707 142.252 109.534C142.671 109.36 143.029 109.067 143.281 108.69C143.532 108.313 143.667 107.87 143.667 107.417C143.667 106.809 143.425 106.226 142.996 105.796C142.566 105.366 141.983 105.125 141.375 105.125ZM134.5 89.0834C129.968 89.0834 125.537 90.4274 121.768 92.9455C118 95.4636 115.062 99.0427 113.328 103.23C111.593 107.418 111.14 112.025 112.024 116.471C112.908 120.916 115.091 125 118.296 128.205C121.501 131.41 125.584 133.592 130.029 134.476C134.475 135.361 139.083 134.907 143.27 133.172C147.457 131.438 151.037 128.5 153.555 124.732C156.073 120.963 157.417 116.533 157.417 112C157.417 108.991 156.824 106.011 155.672 103.23C154.521 100.45 152.833 97.9235 150.705 95.7955C148.577 93.6675 146.05 91.9795 143.27 90.8278C140.49 89.6761 137.51 89.0834 134.5 89.0834ZM134.5 130.333C130.874 130.333 127.33 129.258 124.315 127.244C121.3 125.229 118.95 122.366 117.562 119.016C116.175 115.666 115.812 111.98 116.519 108.423C117.227 104.867 118.973 101.6 121.537 99.0364C124.101 96.4725 127.367 94.7264 130.924 94.019C134.48 93.3116 138.166 93.6746 141.516 95.0623C144.866 96.4499 147.729 98.7997 149.744 101.815C151.758 104.829 152.834 108.374 152.834 112C152.834 116.862 150.902 121.526 147.464 124.964C144.026 128.402 139.362 130.333 134.5 130.333Z" fill="white"/>
</svg>
