<svg width="262" height="223" viewBox="0 0 262 223" fill="none" xmlns="http://www.w3.org/2000/svg">
<ellipse cx="135.388" cy="117.144" rx="56.4115" ry="56.4407" fill="#FF6883"/>
<ellipse cx="245.077" cy="85.161" rx="16.9234" ry="16.9322" fill="#FF6883" fill-opacity="0.7"/>
<ellipse cx="30.086" cy="184.873" rx="11.2823" ry="11.2881" fill="#FF6883" fill-opacity="0.6"/>
<ellipse cx="210.603" cy="192.398" rx="12.5359" ry="12.5424" fill="#FF6883" fill-opacity="0.4"/>
<ellipse cx="118.464" cy="218.11" rx="4.38756" ry="4.38983" fill="#FF6883" fill-opacity="0.3"/>
<ellipse cx="179.89" cy="4.88983" rx="4.38756" ry="4.38983" fill="#FF6883" fill-opacity="0.3"/>
<ellipse cx="59.5454" cy="112.754" rx="5.64115" ry="5.64407" fill="#FF6883" fill-opacity="0.2"/>
<ellipse cx="9.40191" cy="51.2967" rx="9.40191" ry="9.40678" fill="#FF6883" fill-opacity="0.5"/>
<ellipse cx="90.885" cy="34.9916" rx="6.89474" ry="6.8983" fill="#FF6883" fill-opacity="0.1"/>
<path d="M141.542 109.44L131.711 119.295L127.93 115.513C127.724 115.273 127.471 115.079 127.187 114.941C126.903 114.803 126.593 114.726 126.277 114.714C125.962 114.702 125.647 114.755 125.353 114.87C125.059 114.985 124.792 115.16 124.569 115.384C124.345 115.607 124.17 115.874 124.055 116.168C123.94 116.462 123.887 116.777 123.899 117.092C123.911 117.408 123.989 117.718 124.126 118.002C124.264 118.286 124.458 118.539 124.698 118.745L130.084 124.153C130.298 124.365 130.552 124.533 130.831 124.647C131.11 124.761 131.409 124.819 131.711 124.818C132.312 124.815 132.888 124.576 133.315 124.153L144.773 112.695C144.988 112.482 145.159 112.228 145.275 111.949C145.391 111.67 145.451 111.37 145.451 111.068C145.451 110.765 145.391 110.465 145.275 110.186C145.159 109.907 144.988 109.653 144.773 109.44C144.344 109.014 143.763 108.774 143.158 108.774C142.552 108.774 141.971 109.014 141.542 109.44ZM135.309 93.88C130.776 93.88 126.346 95.224 122.577 97.7422C118.808 100.26 115.871 103.839 114.137 108.027C112.402 112.214 111.948 116.822 112.832 121.267C113.717 125.713 115.899 129.796 119.104 133.001C122.309 136.206 126.393 138.389 130.838 139.273C135.283 140.157 139.891 139.703 144.079 137.969C148.266 136.234 151.845 133.297 154.363 129.528C156.881 125.76 158.225 121.329 158.225 116.797C158.225 113.787 157.633 110.807 156.481 108.027C155.329 105.246 153.641 102.72 151.513 100.592C149.385 98.4641 146.859 96.7761 144.079 95.6244C141.298 94.4728 138.318 93.88 135.309 93.88ZM135.309 135.13C131.683 135.13 128.138 134.055 125.123 132.04C122.108 130.026 119.759 127.163 118.371 123.813C116.983 120.463 116.62 116.776 117.328 113.22C118.035 109.664 119.781 106.397 122.345 103.833C124.909 101.269 128.176 99.523 131.732 98.8156C135.288 98.1082 138.975 98.4713 142.325 99.8589C145.675 101.246 148.538 103.596 150.552 106.611C152.567 109.626 153.642 113.171 153.642 116.797C153.642 121.659 151.711 126.322 148.272 129.76C144.834 133.198 140.171 135.13 135.309 135.13Z" fill="white"/>
</svg>
