<svg width="262" height="223" viewBox="0 0 262 223" fill="none" xmlns="http://www.w3.org/2000/svg">
<path d="M191.799 117.144C191.799 148.315 166.543 173.585 135.388 173.585C104.232 173.585 78.9761 148.315 78.9761 117.144C78.9761 85.9727 104.232 60.7034 135.388 60.7034C166.543 60.7034 191.799 85.9727 191.799 117.144Z" fill="#FF6883"/>
<path d="M262 85.161C262 94.5124 254.423 102.093 245.077 102.093C235.73 102.093 228.153 94.5124 228.153 85.161C228.153 75.8096 235.73 68.2288 245.077 68.2288C254.423 68.2288 262 75.8096 262 85.161Z" fill="#FF6883" fill-opacity="0.7"/>
<path d="M41.3684 184.873C41.3684 191.107 36.3171 196.161 30.0861 196.161C23.8551 196.161 18.8038 191.107 18.8038 184.873C18.8038 178.639 23.8551 173.585 30.0861 173.585C36.3171 173.585 41.3684 178.639 41.3684 184.873Z" fill="#FF6883" fill-opacity="0.6"/>
<path d="M223.139 192.398C223.139 199.325 217.526 204.941 210.603 204.941C203.679 204.941 198.067 199.325 198.067 192.398C198.067 185.471 203.679 179.856 210.603 179.856C217.526 179.856 223.139 185.471 223.139 192.398Z" fill="#FF6883" fill-opacity="0.4"/>
<path d="M122.852 218.11C122.852 220.534 120.887 222.5 118.464 222.5C116.041 222.5 114.077 220.534 114.077 218.11C114.077 215.686 116.041 213.72 118.464 213.72C120.887 213.72 122.852 215.686 122.852 218.11Z" fill="#FF6883" fill-opacity="0.3"/>
<path d="M184.277 4.88983C184.277 7.31427 182.313 9.27966 179.89 9.27966C177.467 9.27966 175.502 7.31427 175.502 4.88983C175.502 2.46539 177.467 0.5 179.89 0.5C182.313 0.5 184.277 2.46539 184.277 4.88983Z" fill="#FF6883" fill-opacity="0.3"/>
<path d="M65.1866 112.754C65.1866 115.871 62.661 118.398 59.5454 118.398C56.4299 118.398 53.9043 115.871 53.9043 112.754C53.9043 109.637 56.4299 107.11 59.5454 107.11C62.661 107.11 65.1866 109.637 65.1866 112.754Z" fill="#FF6883" fill-opacity="0.2"/>
<path d="M18.8038 51.2966C18.8038 56.4918 14.5944 60.7034 9.40191 60.7034C4.20938 60.7034 0 56.4918 0 51.2966C0 46.1014 4.20938 41.8898 9.40191 41.8898C14.5944 41.8898 18.8038 46.1014 18.8038 51.2966Z" fill="#FF6883" fill-opacity="0.5"/>
<path d="M97.7799 34.9916C97.7799 38.8014 94.693 41.8899 90.8851 41.8899C87.0773 41.8899 83.9904 38.8014 83.9904 34.9916C83.9904 31.1817 87.0773 28.0933 90.8851 28.0933C94.693 28.0933 97.7799 31.1817 97.7799 34.9916Z" fill="#FF6883" fill-opacity="0.1"/>
<path d="M141.542 109.44L131.711 119.295L127.929 115.513C127.724 115.273 127.471 115.079 127.187 114.941C126.903 114.803 126.593 114.726 126.277 114.714C125.962 114.702 125.647 114.755 125.353 114.87C125.059 114.985 124.792 115.16 124.568 115.383C124.345 115.607 124.17 115.874 124.055 116.168C123.94 116.462 123.887 116.777 123.899 117.092C123.911 117.408 123.988 117.718 124.126 118.002C124.263 118.286 124.458 118.539 124.698 118.745L130.084 124.153C130.298 124.365 130.552 124.533 130.831 124.647C131.11 124.761 131.409 124.819 131.711 124.817C132.312 124.815 132.888 124.576 133.315 124.153L144.773 112.695C144.988 112.482 145.158 112.228 145.275 111.949C145.391 111.67 145.451 111.37 145.451 111.067C145.451 110.765 145.391 110.465 145.275 110.186C145.158 109.907 144.988 109.653 144.773 109.44C144.344 109.014 143.763 108.774 143.158 108.774C142.552 108.774 141.971 109.014 141.542 109.44ZM135.309 93.88C130.776 93.88 126.345 95.224 122.577 97.7421C118.808 100.26 115.871 103.839 114.136 108.027C112.402 112.214 111.948 116.822 112.832 121.267C113.717 125.713 115.899 129.796 119.104 133.001C122.309 136.206 126.392 138.389 130.838 139.273C135.283 140.157 139.891 139.703 144.078 137.969C148.266 136.234 151.845 133.297 154.363 129.528C156.881 125.76 158.225 121.329 158.225 116.797C158.225 113.787 157.633 110.807 156.481 108.027C155.329 105.246 153.641 102.72 151.513 100.592C149.385 98.4641 146.859 96.7761 144.078 95.6244C141.298 94.4727 138.318 93.88 135.309 93.88ZM135.309 135.13C131.683 135.13 128.138 134.055 125.123 132.04C122.108 130.026 119.758 127.162 118.371 123.812C116.983 120.463 116.62 116.776 117.328 113.22C118.035 109.664 119.781 106.397 122.345 103.833C124.909 101.269 128.176 99.523 131.732 98.8156C135.288 98.1082 138.974 98.4712 142.324 99.8588C145.674 101.246 148.538 103.596 150.552 106.611C152.567 109.626 153.642 113.171 153.642 116.797C153.642 121.659 151.71 126.322 148.272 129.76C144.834 133.198 140.171 135.13 135.309 135.13Z" fill="white"/>
</svg>
